# xmcd CD database file
#
# Track frame offsets:
#	150
#	25557
#	52616
#	84400
#	100532
#	125659
#	172995
#	199251
#	243169
#	273786
#
# Disc length: 4051 seconds
#
# Revision: 0
# Processed by: cddbd v1.5.2PL0 Copyright (c) Steve Scherf et al.
# Submitted via: CDex 1.51
#
DISCID=6c0fd10a
DTITLE=David Helpling and Jon Jenkins - Treasure
DYEAR=2007
DGENRE=New Age
TTITLE0=Grand Collision
TTITLE1=Treasure
TTITLE2=The Knowing
TTITLE3=Beyond Words
TTITLE4=Into The Deep
TTITLE5=Not A Soul, Not A Sound
TTITLE6=The Frozen Channel
TTITLE7=Now More Than Ever
TTITLE8=This Day Forward
TTITLE9=The First Goodbye
EXTD=YEAR: 2007
EXTT0=
EXTT1=
EXTT2=
EXTT3=
EXTT4=
EXTT5=
EXTT6=
EXTT7=
EXTT8=
EXTT9=
PLAYORDER=
